<mxfile host="app.diagrams.net" modified="2022-02-21T14:53:53.011Z" agent="5.0 (Windows NT 10.0; Win64; x64) AppleWebKit/537.36 (KHTML, like Gecko) Chrome/98.0.4758.102 Safari/537.36" etag="-kizlrzokk7DOCNN2jHX" version="16.4.7" type="github">
  <diagram id="D72mbG_2s7yG8OOd4-9c" name="Page-1">
    <mxGraphModel dx="2062" dy="1113" grid="1" gridSize="10" guides="1" tooltips="1" connect="1" arrows="1" fold="1" page="1" pageScale="1" pageWidth="827" pageHeight="1169" math="0" shadow="0">
      <root>
        <mxCell id="0" />
        <mxCell id="1" parent="0" />
        <mxCell id="z1TDhFL5Q0jzdmOdVjdY-7" value="" style="edgeStyle=orthogonalEdgeStyle;rounded=0;orthogonalLoop=1;jettySize=auto;html=1;fontFamily=Courier New;" edge="1" parent="1" source="z1TDhFL5Q0jzdmOdVjdY-1" target="z1TDhFL5Q0jzdmOdVjdY-3">
          <mxGeometry relative="1" as="geometry" />
        </mxCell>
        <mxCell id="z1TDhFL5Q0jzdmOdVjdY-9" value="" style="edgeStyle=orthogonalEdgeStyle;rounded=0;orthogonalLoop=1;jettySize=auto;html=1;fontFamily=Courier New;" edge="1" parent="1" source="z1TDhFL5Q0jzdmOdVjdY-1">
          <mxGeometry relative="1" as="geometry">
            <mxPoint x="280" y="240" as="targetPoint" />
          </mxGeometry>
        </mxCell>
        <mxCell id="z1TDhFL5Q0jzdmOdVjdY-1" value="&lt;span style=&quot;color: rgba(0 , 0 , 0 , 0) ; font-family: monospace ; font-size: 0px&quot;&gt;%3CmxGraphModel%3E%3Croot%3E%3CmxCell%20id%3D%220%22%2F%3E%3CmxCell%20id%3D%221%22%20parent%3D%220%22%2F%3E%3CmxCell%20id%3D%222%22%20value%3D%22%22%20style%3D%22rounded%3D0%3BwhiteSpace%3Dwrap%3Bhtml%3D1%3BfillColor%3D%23d5e8d4%3BstrokeColor%3D%2382b366%3B%22%20vertex%3D%221%22%20parent%3D%221%22%3E%3CmxGeometry%20x%3D%22170%22%20y%3D%22250%22%20width%3D%22120%22%20height%3D%2260%22%20as%3D%22geometry%22%2F%3E%3C%2FmxCell%3E%3C%2Froot%3E%3C%2FmxGraphModel%3E&lt;/span&gt;" style="rounded=0;whiteSpace=wrap;html=1;fillColor=#d5e8d4;strokeColor=#82b366;" vertex="1" parent="1">
          <mxGeometry x="240" y="70" width="330" height="60" as="geometry" />
        </mxCell>
        <mxCell id="z1TDhFL5Q0jzdmOdVjdY-2" value="&lt;pre style=&quot;color: rgb(236 , 236 , 238) ; font-family: &amp;#34;jetbrains mono&amp;#34; , monospace ; font-size: 12pt&quot;&gt;&lt;span style=&quot;color: rgb(130 , 170 , 255)&quot;&gt;register&lt;/span&gt;&lt;span style=&quot;color: rgb(61 , 139 , 235)&quot;&gt;(&lt;/span&gt;&lt;span style=&quot;color: rgb(64 , 191 , 119)&quot;&gt;Class&lt;/span&gt;&lt;span style=&quot;color: rgb(61 , 139 , 235)&quot;&gt;&amp;lt;&lt;/span&gt;&lt;span style=&quot;color: rgb(64 , 191 , 119)&quot;&gt;?&lt;/span&gt;&lt;span style=&quot;color: rgb(61 , 139 , 235)&quot;&gt;&amp;gt;&lt;/span&gt;...&lt;/pre&gt;&lt;pre style=&quot;color: rgb(236 , 236 , 238) ; font-family: &amp;#34;jetbrains mono&amp;#34; , monospace ; font-size: 12pt&quot;&gt; &lt;span style=&quot;color: rgb(141 , 195 , 249)&quot;&gt;componentClasses&lt;/span&gt;&lt;span style=&quot;color: rgb(61 , 139 , 235)&quot;&gt;)&lt;/span&gt;&lt;/pre&gt;" style="rounded=0;whiteSpace=wrap;html=1;fillColor=#d5e8d4;strokeColor=#82b366;" vertex="1" parent="1">
          <mxGeometry x="170" y="240" width="230" height="90" as="geometry" />
        </mxCell>
        <mxCell id="z1TDhFL5Q0jzdmOdVjdY-3" value="&lt;pre style=&quot;color: rgb(236 , 236 , 238) ; font-family: &amp;#34;jetbrains mono&amp;#34; , monospace ; font-size: 12pt&quot;&gt;&lt;span style=&quot;color: rgb(130 , 170 , 255)&quot;&gt;scan&lt;/span&gt;&lt;span style=&quot;color: rgb(61 , 139 , 235)&quot;&gt;(&lt;/span&gt;&lt;span style=&quot;color: rgb(64 , 191 , 119)&quot;&gt;String&lt;/span&gt;...&lt;/pre&gt;&lt;pre style=&quot;color: rgb(236 , 236 , 238) ; font-family: &amp;#34;jetbrains mono&amp;#34; , monospace ; font-size: 12pt&quot;&gt; &lt;span style=&quot;color: rgb(141 , 195 , 249)&quot;&gt;basePackages&lt;/span&gt;&lt;span style=&quot;color: rgb(61 , 139 , 235)&quot;&gt;)&lt;/span&gt;&lt;/pre&gt;" style="rounded=0;whiteSpace=wrap;html=1;fillColor=#d5e8d4;strokeColor=#82b366;" vertex="1" parent="1">
          <mxGeometry x="410" y="240" width="210" height="90" as="geometry" />
        </mxCell>
        <mxCell id="z1TDhFL5Q0jzdmOdVjdY-4" value="&lt;pre style=&quot;color: rgb(236 , 236 , 238) ; font-size: 12pt&quot;&gt;&lt;span style=&quot;color: rgb(120 , 204 , 240)&quot;&gt;&lt;font face=&quot;Courier New&quot;&gt;&lt;b&gt;AnnotationConfigRegistry&lt;/b&gt;&lt;/font&gt;&lt;/span&gt;&lt;/pre&gt;" style="text;html=1;strokeColor=none;fillColor=none;align=center;verticalAlign=middle;whiteSpace=wrap;rounded=0;" vertex="1" parent="1">
          <mxGeometry x="290" y="87.5" width="230" height="25" as="geometry" />
        </mxCell>
      </root>
    </mxGraphModel>
  </diagram>
</mxfile>
